<svg width="25" height="21" viewBox="0 0 25 21" fill="none" xmlns="http://www.w3.org/2000/svg">
<path d="M21.1898 7.79492C21.8413 8.37778 22.3898 8.94349 22.8013 9.38921C23.0856 9.70421 23.2429 10.1135 23.2429 10.5378C23.2429 10.9621 23.0856 11.3713 22.8013 11.6864C21.0013 13.6235 16.9041 17.3949 12.1213 17.3949H11.4355" stroke="#666666" stroke-width="1.71429" stroke-linecap="round" stroke-linejoin="round"/>
<path d="M6.75595 15.9035C4.77018 14.7914 2.97591 13.3675 1.44167 11.6864C1.15737 11.3714 1 10.9621 1 10.5378C1 10.1135 1.15737 9.70424 1.44167 9.38924C3.24167 7.45209 7.33881 3.68066 12.1217 3.68066C14.007 3.72007 15.8521 4.23294 17.4874 5.17209" stroke="#666666" stroke-width="1.71429" stroke-linecap="round" stroke-linejoin="round"/>
<path d="M21.5505 1.10913L2.69336 19.9663" stroke="#666666" stroke-width="1.71429" stroke-linecap="round" stroke-linejoin="round"/>
<path d="M9.70479 12.9548C9.06092 12.3148 8.69719 11.4455 8.69336 10.5377C8.69336 9.62839 9.05458 8.75632 9.69756 8.11334C10.3405 7.47035 11.2126 7.10913 12.1219 7.10913C13.0298 7.11296 13.899 7.47669 14.5391 8.12056" stroke="#666666" stroke-width="1.71429" stroke-linecap="round" stroke-linejoin="round"/>
<path d="M15.1045 12.252C14.7993 12.7736 14.3617 13.2053 13.8359 13.5034" stroke="#666666" stroke-width="1.71429" stroke-linecap="round" stroke-linejoin="round"/>
</svg>
